name D:\school\WTK\thesis\model\3dpredictsim\Results\batch_windlass\Pog_s1_tmt_aCst_d05_k800_WL30_ig24_act_TTC.mot
datacolumns 128
datarows 4
range 1.22047101 1.25708514
endheader
time	pelvis_tilt	pelvis_list	pelvis_rotation	pelvis_tx	pelvis_ty	pelvis_tz	hip_flexion_l	hip_adduction_l	hip_rotation_l	hip_flexion_r	hip_adduction_r	hip_rotation_r	knee_angle_l	knee_angle_r	ankle_angle_l	ankle_angle_r	subtalar_angle_l	subtalar_angle_r	tmt_angle_l	tmt_angle_r	mtp_angle_l	mtp_angle_r	lumbar_extension	lumbar_bending	lumbar_rotation	arm_flex_l	arm_add_l	arm_rot_l	arm_flex_r	arm_add_r	arm_rot_r	elbow_flex_l	elbow_flex_r	pro_sup_l	pro_sup_r	glut_med1_l/activation	glut_med2_l/activation	glut_med3_l/activation	glut_min1_l/activation	glut_min2_l/activation	glut_min3_l/activation	semimem_l/activation	semiten_l/activation	bifemlh_l/activation	bifemsh_l/activation	sar_l/activation	add_long_l/activation	add_brev_l/activation	add_mag1_l/activation	add_mag2_l/activation	add_mag3_l/activation	tfl_l/activation	pect_l/activation	grac_l/activation	glut_max1_l/activation	glut_max2_l/activation	glut_max3_l/activation	iliacus_l/activation	psoas_l/activation	quad_fem_l/activation	gem_l/activation	peri_l/activation	rect_fem_l/activation	vas_med_l/activation	vas_int_l/activation	vas_lat_l/activation	med_gas_l/activation	lat_gas_l/activation	soleus_l/activation	tib_post_l/activation	flex_dig_l/activation	flex_hal_l/activation	tib_ant_l/activation	per_brev_l/activation	per_long_l/activation	per_tert_l/activation	ext_dig_l/activation	ext_hal_l/activation	ercspn_l/activation	intobl_l/activation	extobl_l/activation	glut_med1_r/activation	glut_med2_r/activation	glut_med3_r/activation	glut_min1_r/activation	glut_min2_r/activation	glut_min3_r/activation	semimem_r/activation	semiten_r/activation	bifemlh_r/activation	bifemsh_r/activation	sar_r/activation	add_long_r/activation	add_brev_r/activation	add_mag1_r/activation	add_mag2_r/activation	add_mag3_r/activation	tfl_r/activation	pect_r/activation	grac_r/activation	glut_max1_r/activation	glut_max2_r/activation	glut_max3_r/activation	iliacus_r/activation	psoas_r/activation	quad_fem_r/activation	gem_r/activation	peri_r/activation	rect_fem_r/activation	vas_med_r/activation	vas_int_r/activation	vas_lat_r/activation	med_gas_r/activation	lat_gas_r/activation	soleus_r/activation	tib_post_r/activation	flex_dig_r/activation	flex_hal_r/activation	tib_ant_r/activation	per_brev_r/activation	per_long_r/activation	per_tert_r/activation	ext_dig_r/activation	ext_hal_r/activation	ercspn_r/activation	intobl_r/activation	extobl_r/activation	
          1.22047101	         -2.93017643	         -0.49372052	          8.92186315	          1.52558876	          0.85741653	         -0.00256532	        -16.21841842	         -2.54219475	          6.40816499	         33.09800376	         -1.27757332	         -3.76539437	        -16.16440296	        -19.39346020	         -9.15894045	          3.05764616	         17.45854106	          7.36499506	        -11.66671304	         -0.25988828	         37.56726287	          0.80696149	          0.52159820	         -2.30052825	         -2.90251059	          2.73254661	        -13.51741475	         15.83209745	        -13.11446686	        -13.60138986	         11.23318380	         42.87996262	         18.31249642	         86.51662706	         86.51662706	          0.14016473	          0.08025303	          0.05029951	          0.18175994	          0.12637183	          0.08713828	          0.05000746	          0.05000081	          0.05000065	          0.05000062	          0.08945490	          0.10355074	          0.07471017	          0.05002976	          0.05000835	          0.05000536	          0.17285330	          0.05001582	          0.05000246	          0.05000753	          0.05000620	          0.05000856	          0.33978816	          0.39852045	          0.05000083	          0.05000296	          0.05358088	          0.21992997	          0.08018030	          0.09502771	          0.10062937	          0.13781169	          0.19814711	          0.05000001	          0.13739067	          0.14376069	          0.15284101	          0.18644066	          0.46906029	          0.36109960	          0.47619384	          0.39465673	          0.16430450	          0.05000002	          0.05474930	          0.05617278	          0.06210984	          0.05001107	          0.06017032	          0.05000209	          0.05000234	          0.05000516	          0.07128684	          0.06017233	          0.10485819	          0.06017080	          0.05121678	          0.05000819	          0.09509058	          0.14673803	          0.10886645	          0.10333025	          0.05001457	          0.05000919	          0.06017219	          0.07240034	          0.06017214	          0.10238726	          0.07605217	          0.07333253	          0.18132848	          0.05548380	          0.07510858	          0.05000067	          0.07965494	          0.09885748	          0.07993162	          0.07930076	          0.07223592	          0.06525036	          0.06017061	          0.07240285	          0.07240577	          0.49622035	          0.24648424	          0.17930636	          0.12265893	          0.50588195	          0.13778630	          0.05000004	          0.14134526	          0.12117104	
          1.23267572	         -2.92714691	         -0.40605894	          9.08734784	          1.54535386	          0.85606252	         -0.00225235	        -16.48845323	         -2.77954917	          6.19221801	         32.53156698	         -1.08722482	         -3.56813900	        -17.17549262	        -19.19826334	        -12.07447225	          2.56569572	         17.82439178	          6.92592312	        -12.09400385	         -0.29710398	         38.18932401	          0.92639151	          0.75441246	         -2.13344485	         -3.00387374	          2.32591456	        -13.58076739	         16.16413182	        -14.60040378	        -13.59197372	         11.31842777	         44.00878049	         18.32678399	         86.51662706	         86.51662706	          0.11647289	          0.06668812	          0.05000041	          0.15103736	          0.10501141	          0.07240975	          0.05000272	          0.05000069	          0.05000070	          0.05000290	          0.07433487	          0.15409166	          0.22514610	          0.10154188	          0.05001280	          0.05000088	          0.14363611	          0.08714101	          0.07240514	          0.05000303	          0.05000178	          0.05000132	          0.28235406	          0.33115887	          0.06543786	          0.05001842	          0.06384801	          0.18275538	          0.06662790	          0.07896594	          0.08362130	          0.11451748	          0.16465446	          0.05000003	          0.11416764	          0.11946100	          0.12700644	          0.37581328	          0.45991082	          0.34014773	          0.71118591	          0.53552517	          0.13653234	          0.05000016	          0.06193777	          0.07477515	          0.08674347	          0.06016877	          0.05000028	          0.06017068	          0.06017009	          0.05000817	          0.05923742	          0.05000154	          0.08713434	          0.05000028	          0.05000101	          0.07936544	          0.08713865	          0.15184122	          0.16337764	          0.13782350	          0.05000034	          0.05002349	          0.05000166	          0.06016336	          0.05000155	          0.16403303	          0.06319730	          0.06093730	          0.23611275	          0.05000425	          0.22429841	          0.06767692	          0.21860895	          0.21326914	          0.18524114	          0.06589662	          0.06002596	          0.05422115	          0.05000007	          0.06016500	          0.06016733	          0.66093423	          0.25474895	          0.14899924	          0.51625581	          0.61982626	          0.33001880	          0.05000005	          0.11745379	          0.10068959	
          1.24488043	         -2.91766846	         -0.33143351	          9.21205490	          1.56524653	          0.85418273	         -0.00193963	        -16.57084446	         -2.99084803	          5.98854134	         31.85463826	         -0.86531727	         -3.30761429	        -18.64660262	        -19.72040075	        -14.51754437	          2.02026993	         18.11261003	          6.44667726	        -11.91284416	         -0.37936112	         37.02197752	          1.11552414	          0.98584554	         -1.93487710	         -3.08820732	          1.86800833	        -13.66404717	         16.43634205	        -16.04062024	        -13.59906491	         11.51502738	         45.14188151	         18.27204788	         86.51662706	         86.51662706	          0.09678569	          0.06017060	          0.06017070	          0.12550783	          0.08726154	          0.06017093	          0.06062249	          0.05000063	          0.05000156	          0.05000018	          0.06177040	          0.13714235	          0.29767835	          0.12942715	          0.07636590	          0.11949709	          0.11935749	          0.07241244	          0.06016958	          0.06013092	          0.06016798	          0.06017097	          0.23462801	          0.27518340	          0.06017163	          0.06017112	          0.05305616	          0.15186437	          0.08713892	          0.08713892	          0.08713893	          0.09516068	          0.13682305	          0.05000021	          0.09486998	          0.09926869	          0.10553867	          0.34892992	          0.41299553	          0.30545657	          0.66689523	          0.68625093	          0.40656574	          0.07380730	          0.06017059	          0.06213601	          0.18616233	          0.05000026	          0.29492424	          0.05000038	          0.05000031	          0.05000041	          0.05000012	          0.05000015	          0.07240618	          0.05000012	          0.05000078	          0.07240969	          0.07241015	          0.12617642	          0.13576249	          0.13837653	          0.05000082	          0.06019639	          0.06016318	          0.05000038	          0.12700788	          0.14686070	          0.06017188	          0.06017038	          0.19620657	          0.05000146	          0.28543356	          0.06017142	          0.31017860	          0.29739163	          0.26033467	          0.05500812	          0.05000039	          0.05000012	          0.05000004	          0.05000022	          0.05000020	          0.61530777	          0.21168911	          0.12381522	          0.56299253	          0.55424235	          0.27423610	          0.05000002	          0.09760067	          0.08367011	
          1.25708514	         -2.90384578	         -0.27355343	          9.29304304	          1.58509717	          0.85201787	         -0.00162877	        -16.49064392	         -3.18991706	          5.80351619	         31.01654096	         -0.62665439	         -3.00055580	        -20.49656574	        -20.60138261	        -16.49636841	          1.92171080	         18.33026737	          5.93431786	        -11.13297275	         -0.72981969	         34.02849230	          1.16277118	          1.20973360	         -1.70623896	         -3.15531285	          1.39345616	        -13.75088655	         16.65921172	        -17.38520442	        -13.61651283	         11.83492746	         46.21868999	         18.10931091	         86.51662706	         86.51662706	          0.28337006	          0.05000025	          0.05000015	          0.17142084	          0.07251193	          0.05000066	          0.08985339	          0.05000011	          0.05000019	          0.05000017	          0.05132992	          0.11396154	          0.24736321	          0.10755056	          0.06345891	          0.09929944	          0.09918267	          0.06017320	          0.05000055	          0.05000165	          0.05000110	          0.05000093	          0.19496907	          0.22990278	          0.05000092	          0.05000085	          0.05000015	          0.12619486	          0.07240997	          0.07240997	          0.07240997	          0.07907575	          0.11369597	          0.05000003	          0.07883420	          0.08248953	          0.08769960	          0.34293027	          0.37296111	          0.28471992	          0.57586594	          0.82700630	          0.33784426	          0.12179539	          0.05000002	          0.05163323	          0.27970010	          0.36666442	          0.56131241	          0.24924762	          0.34210043	          0.47075947	          0.05202954	          0.05002787	          0.06016839	          0.06017075	          0.06017011	          0.06017039	          0.06017076	          0.10484901	          0.11281478	          0.11501781	          0.05000106	          0.05002194	          0.05000210	          0.26508052	          0.21008722	          0.13381025	          0.05000120	          0.05000030	          0.16304226	          0.12934026	          0.33203142	          0.05000073	          0.34905791	          0.34836818	          0.30565241	          0.05000002	          0.05000007	          0.05000001	          0.10877108	          0.05000446	          0.05000187	          0.76296109	          0.17590748	          0.10288683	          0.46783461	          0.60897460	          0.43788978	          0.05188105	          0.08110331	          0.06952742	
